<svg xmlns="http://www.w3.org/2000/svg" width="17.516" height="17.516" viewBox="0 0 17.516 17.516"><path id="boligrafo-calendario" d="M13.867,1.46h-.73V.73a.73.73,0,1,0-1.46,0v.73H5.839V.73a.73.73,0,0,0-1.46,0v.73h-.73A3.653,3.653,0,0,0,0,5.109v8.758a3.653,3.653,0,0,0,3.649,3.649H6.569a.73.73,0,0,0,0-1.46H3.649a2.192,2.192,0,0,1-2.19-2.19V7.3H16.787a.73.73,0,0,0,.73-.73V5.109A3.653,3.653,0,0,0,13.867,1.46Zm2.19,4.379H1.46v-.73a2.192,2.192,0,0,1,2.19-2.19H13.867a2.192,2.192,0,0,1,2.19,2.19ZM13.779,9.4,9.614,13.565a2.9,2.9,0,0,0-.855,2.064v1.158a.73.73,0,0,0,.73.73h1.158a2.9,2.9,0,0,0,2.064-.855L16.875,12.5a2.189,2.189,0,0,0-3.1-3.1Zm2.064,2.064-4.165,4.165a1.45,1.45,0,0,1-1.032.428h-.428v-.428a1.471,1.471,0,0,1,.428-1.032l4.165-4.165a.73.73,0,0,1,1.032,0,.729.729,0,0,1,0,1.032Z" transform="matrix(1, 0, 0, 1, 0, 0)" fill="#606060"></path></svg>