<svg xmlns="http://www.w3.org/2000/svg" width="19" height="19" viewBox="0 0 19 19"><path id="edificio" d="M5.542,11.083a.792.792,0,0,1-.792.792H3.958a.792.792,0,0,1,0-1.583H4.75A.792.792,0,0,1,5.542,11.083Zm3.167-.792H7.917a.792.792,0,0,0,0,1.583h.792a.792.792,0,0,0,0-1.583ZM4.75,13.458H3.958a.792.792,0,1,0,0,1.583H4.75a.792.792,0,0,0,0-1.583Zm3.958,0H7.917a.792.792,0,1,0,0,1.583h.792a.792.792,0,1,0,0-1.583ZM4.75,3.958H3.958a.792.792,0,1,0,0,1.583H4.75a.792.792,0,0,0,0-1.583Zm3.958,0H7.917a.792.792,0,1,0,0,1.583h.792a.792.792,0,1,0,0-1.583ZM4.75,7.125H3.958a.792.792,0,0,0,0,1.583H4.75a.792.792,0,0,0,0-1.583Zm3.958,0H7.917a.792.792,0,0,0,0,1.583h.792a.792.792,0,0,0,0-1.583ZM19,7.917v7.125A3.963,3.963,0,0,1,15.042,19H3.958A3.963,3.963,0,0,1,0,15.042V3.958A3.963,3.963,0,0,1,3.958,0h4.75a3.963,3.963,0,0,1,3.958,3.958h2.375A3.963,3.963,0,0,1,19,7.917Zm-15.042,9.5h7.125V3.958A2.375,2.375,0,0,0,8.708,1.583H3.958A2.375,2.375,0,0,0,1.583,3.958V15.042A2.375,2.375,0,0,0,3.958,17.417Zm13.458-9.5a2.375,2.375,0,0,0-2.375-2.375H12.667V17.417h2.375a2.375,2.375,0,0,0,2.375-2.375Zm-2.375,2.375a.792.792,0,1,0,.792.792A.792.792,0,0,0,15.042,10.292Zm0,3.167a.792.792,0,1,0,.792.792A.792.792,0,0,0,15.042,13.458Zm0-6.333a.792.792,0,1,0,.792.792A.792.792,0,0,0,15.042,7.125Z" fill="#606060"></path></svg>