<svg xmlns="http://www.w3.org/2000/svg" width="18.765" height="18.764" viewBox="0 0 18.765 18.764"><path id="estrella-del-podio" d="M17.982,7.818H3.127V5.473A2.348,2.348,0,0,1,5.473,3.127h.134A2.349,2.349,0,0,0,7.818,4.691h2.346a2.346,2.346,0,0,0,0-4.691H7.818A2.349,2.349,0,0,0,5.607,1.564H5.473A3.914,3.914,0,0,0,1.564,5.473V7.818H.782a.782.782,0,1,0,0,1.564h.9L2.7,15.5a3.9,3.9,0,0,0,3.856,3.267h5.647A3.9,3.9,0,0,0,16.062,15.5l1.02-6.115h.9a.782.782,0,0,0,0-1.564ZM7.818,1.564h2.346a.782.782,0,0,1,0,1.564H7.818a.782.782,0,0,1,0-1.564Zm6.7,13.677a2.338,2.338,0,0,1-2.313,1.96H6.558a2.338,2.338,0,0,1-2.313-1.96L3.268,9.382H15.5Zm-8.23-2.828a.616.616,0,0,1,.6-.436H8.339l.44-1.373a.633.633,0,0,1,1.206,0l.44,1.373h1.449a.633.633,0,0,1,.374,1.144l-1.178.861.448,1.385a.633.633,0,0,1-.977.7l-1.158-.851-1.158.851a.628.628,0,0,1-.745,0,.616.616,0,0,1-.232-.708l.447-1.385L6.517,13.12A.616.616,0,0,1,6.288,12.413Z" fill="#606060"></path></svg>