<svg xmlns="http://www.w3.org/2000/svg" width="19" height="19" viewBox="0 0 19 19"><path id="estrella-circular" d="M7.141,13.735a.735.735,0,0,1-.435-.142.722.722,0,0,1-.253-.8l.681-2.185-1.726-1.4a.722.722,0,0,1,.467-1.275H8.051l.768-2.066a.725.725,0,0,1,1.362,0l.768,2.066h2.177a.727.727,0,0,1,.681.475.741.741,0,0,1-.214.807l-1.718,1.4.712,2.161a.719.719,0,0,1-.245.8.726.726,0,0,1-.839.032l-1.995-1.3L7.545,13.625a.73.73,0,0,1-.4.119ZM9.5,19A9.5,9.5,0,1,1,19,9.5,9.508,9.508,0,0,1,9.5,19Zm0-17.417A7.917,7.917,0,1,0,17.417,9.5,7.93,7.93,0,0,0,9.5,1.583Z" fill="#606060"></path></svg>