<svg xmlns="http://www.w3.org/2000/svg" width="17.886" height="17.886" viewBox="0 0 17.886 17.886"><path id="estrella-del-calendario_1_" data-name="estrella-del-calendario (1)" d="M14.16,1.49h-.745V.745a.745.745,0,1,0-1.49,0V1.49H5.962V.745a.745.745,0,0,0-1.49,0V1.49H3.726A3.73,3.73,0,0,0,0,5.217V14.16a3.73,3.73,0,0,0,3.726,3.726H14.16a3.73,3.73,0,0,0,3.726-3.726V5.217A3.73,3.73,0,0,0,14.16,1.49ZM3.726,2.981H14.16A2.238,2.238,0,0,1,16.4,5.217v.745H1.49V5.217A2.238,2.238,0,0,1,3.726,2.981ZM14.16,16.4H3.726A2.238,2.238,0,0,1,1.49,14.16V7.452H16.4V14.16A2.238,2.238,0,0,1,14.16,16.4Zm-1.94-4.954a.773.773,0,0,1-.422.645l-1.166.648.517,1.411a.661.661,0,0,1-.223.755h0a.661.661,0,0,1-.8-.005L8.966,14l-1.16.9a.661.661,0,0,1-.8.005h0a.661.661,0,0,1-.223-.755L7.3,12.735l-1.166-.648a.773.773,0,0,1-.422-.645.527.527,0,0,1,.545-.5H7.932l.444-1.7a.608.608,0,0,1,1.18,0l.444,1.7h1.675A.527.527,0,0,1,12.22,11.441Z" fill="#606060"></path></svg>