<svg xmlns="http://www.w3.org/2000/svg" width="19" height="15.833" viewBox="0 0 19 15.833"><g id="subtitulos" transform="translate(0 -2)"><path id="Path_24335" data-name="Path 24335" d="M15.042,17.833H3.958A3.963,3.963,0,0,1,0,13.875V5.958A3.963,3.963,0,0,1,3.958,2H15.042A3.963,3.963,0,0,1,19,5.958v7.917a3.963,3.963,0,0,1-3.958,3.958ZM3.958,3.583A2.375,2.375,0,0,0,1.583,5.958v7.917A2.375,2.375,0,0,0,3.958,16.25H15.042a2.375,2.375,0,0,0,2.375-2.375V5.958a2.375,2.375,0,0,0-2.375-2.375Z" fill="#606060"></path><path id="Path_24336" data-name="Path 24336" d="M17.125,12.583H10.792a.792.792,0,1,1,0-1.583h6.333a.792.792,0,1,1,0,1.583Z" transform="translate(-2.083 -1.875)" fill="#606060"></path><path id="Path_24337" data-name="Path 24337" d="M6.375,12.583H4.792a.792.792,0,1,1,0-1.583H6.375a.792.792,0,1,1,0,1.583Z" transform="translate(-0.833 -1.875)" fill="#606060"></path><path id="Path_24338" data-name="Path 24338" d="M11.125,17.583H4.792a.792.792,0,1,1,0-1.583h6.333a.792.792,0,1,1,0,1.583Z" transform="translate(-0.833 -2.917)" fill="#606060"></path><path id="Path_24339" data-name="Path 24339" d="M18.375,17.583H16.792a.792.792,0,1,1,0-1.583h1.583a.792.792,0,1,1,0,1.583Z" transform="translate(-3.333 -2.917)" fill="#606060"></path></g></svg>