<svg xmlns="http://www.w3.org/2000/svg" xmlns:xlink="http://www.w3.org/1999/xlink" id="Componente_6_30" data-name="Componente 6 &#x2013; 30" width="101.43" height="101.43" viewBox="0 0 101.43 101.43"><defs><clipPath id="clip-path"><rect id="Rect&#xE1;ngulo_21" data-name="Rect&#xE1;ngulo 21" width="101.43" height="101.43" fill="none" stroke="#fff" stroke-width="1"></rect></clipPath></defs><g id="Grupo_32" data-name="Grupo 32" clip-path="url(#clip-path)"><path id="Trazado_666" data-name="Trazado 666" d="M67.513,2.334,76.222,15.1a5.348,5.348,0,0,0,2.6,2.017l14.54,5.242A5.345,5.345,0,0,1,96.8,28.383l-2.87,15.187a5.347,5.347,0,0,0,.414,3.266l6.574,13.988A5.345,5.345,0,0,1,99.1,67.513L86.328,76.222a5.346,5.346,0,0,0-2.016,2.6l-5.242,14.54A5.345,5.345,0,0,1,73.048,96.8l-15.187-2.87a5.344,5.344,0,0,0-3.266.415l-13.988,6.574a5.346,5.346,0,0,1-6.69-1.826L25.208,86.328a5.345,5.345,0,0,0-2.6-2.016L8.066,79.069a5.345,5.345,0,0,1-3.439-6.021L7.5,57.861A5.344,5.344,0,0,0,7.083,54.6L.509,40.607a5.345,5.345,0,0,1,1.826-6.689L15.1,25.209a5.344,5.344,0,0,0,2.016-2.6L22.361,8.066a5.346,5.346,0,0,1,6.021-3.439L43.569,7.5a5.345,5.345,0,0,0,3.266-.415L60.824.509a5.345,5.345,0,0,1,6.689,1.826" transform="translate(0 0)" fill="#ffa400"></path><g id="recibo" transform="translate(31.239 28.746)"><path id="Trazado_10722" data-name="Trazado 10722" d="M26.8,0H12.154A9.165,9.165,0,0,0,3,9.154V42.107a1.831,1.831,0,0,0,2.863,1.51l3.856-2.634,3.856,2.634a1.831,1.831,0,0,0,2.069,0l3.845-2.634,3.845,2.634a1.831,1.831,0,0,0,2.071,0l3.845-2.633,3.845,2.631a1.831,1.831,0,0,0,2.861-1.509V9.154A9.165,9.165,0,0,0,26.8,0Zm5.492,38.628-2.014-1.377a1.831,1.831,0,0,0-2.072,0l-3.845,2.634-3.845-2.634a1.831,1.831,0,0,0-2.071,0L14.6,39.886l-3.845-2.634a1.831,1.831,0,0,0-2.067,0L6.661,38.628V9.154a5.492,5.492,0,0,1,5.492-5.492H26.8a5.492,5.492,0,0,1,5.492,5.492Z" transform="translate(0)" fill="#fff"></path><rect id="Rect&#xE1;ngulo_546" data-name="Rect&#xE1;ngulo 546" width="17.892" height="3.578" rx="1" transform="translate(10.157 14.314)" fill="#fff"></rect><rect id="Rect&#xE1;ngulo_547" data-name="Rect&#xE1;ngulo 547" width="14.314" height="3.578" rx="1" transform="translate(10.157 21.471)" fill="#fff"></rect></g></g></svg>